<?xml version="1.0" encoding="UTF-8"?>
<!DOCTYPE svg PUBLIC "-//W3C//DTD SVG 1.1//EN" "http://www.w3.org/Graphics/SVG/1.1/DTD/svg11.dtd">
<svg xmlns="http://www.w3.org/2000/svg" version="1.1" width="550px" height="470px" style="shape-rendering:geometricPrecision; text-rendering:geometricPrecision; image-rendering:optimizeQuality; fill-rule:evenodd; clip-rule:evenodd" xmlns:xlink="http://www.w3.org/1999/xlink">
<g><path style="opacity:0.939" fill="#1d9f99" d="M 340.5,-0.5 C 345.167,-0.5 349.833,-0.5 354.5,-0.5C 361.265,2.43051 366.265,7.26385 369.5,14C 368.715,16.0417 369.048,18.0417 370.5,20C 369.5,23 368.5,26 367.5,29C 367.833,29.3333 368.167,29.6667 368.5,30C 366.126,32.039 364.126,34.3723 362.5,37C 351.655,45.0086 341.155,44.1753 331,34.5C 321.576,19.5567 324.743,7.89006 340.5,-0.5 Z"/></g>
<g><path style="opacity:1" fill="#2364a4" d="M 343.5,3.5 C 357.704,2.87667 364.871,9.54333 365,23.5C 361.646,35.4816 353.813,39.9816 341.5,37C 332.212,32.2431 329.046,24.7431 332,14.5C 334.412,9.25234 338.246,5.58567 343.5,3.5 Z"/></g>
<g><path style="opacity:1" fill="#14a597" d="M 342.5,5.5 C 360.032,4.93004 366.199,12.93 361,29.5C 351.165,39.394 342.165,38.7274 334,27.5C 331.004,17.8374 333.837,10.5041 342.5,5.5 Z"/></g>
<g><path style="opacity:1" fill="#e9e8d8" d="M 346.5,11.5 C 350.019,12.3089 351.352,14.3089 350.5,17.5C 349.377,15.711 348.044,15.3776 346.5,16.5C 348.96,18.6357 350.627,21.3023 351.5,24.5C 349.162,30.4357 346.829,30.6023 344.5,25C 344.833,24.5 345.167,24 345.5,23.5C 346.668,26.4689 348.001,26.8022 349.5,24.5C 348.185,22.6841 346.685,21.0175 345,19.5C 344.288,16.5624 344.788,13.8957 346.5,11.5 Z"/></g>
<g><path style="opacity:0.942" fill="#255ca6" d="M 443.5,127.5 C 442.167,120.167 442.167,112.833 443.5,105.5C 458.873,102.031 466.206,92.8644 465.5,78C 462.875,69.1755 457.208,63.1755 448.5,60C 432.908,58.1405 423.241,64.6405 419.5,79.5C 418.005,79.9887 416.671,80.6554 415.5,81.5C 409.642,81.8222 403.975,81.4889 398.5,80.5C 398.458,78.8543 398.458,77.1877 398.5,75.5C 401.785,74.6764 405.118,74.1764 408.5,74C 408.167,73.6667 407.833,73.3333 407.5,73C 409.207,70.5615 410.541,67.8948 411.5,65C 409.553,62.0488 407.219,59.3822 404.5,57C 408.5,53 412.5,49 416.5,45C 419.776,46.2365 422.609,48.4032 425,51.5C 428.732,50.0393 432.232,48.2059 435.5,46C 435.5,43.3333 435.5,40.6667 435.5,38C 440.155,37.5008 444.821,37.3342 449.5,37.5C 449.18,40.8984 449.513,44.2317 450.5,47.5C 453.806,48.5451 456.973,49.8784 460,51.5C 462.349,48.9832 464.849,46.6499 467.5,44.5C 473.032,48.5171 477.366,53.0171 480.5,58C 477.644,60.022 475.311,62.522 473.5,65.5C 475.874,68.0283 476.874,71.0283 476.5,74.5C 480.375,74.0845 484.042,74.5845 487.5,76C 486.167,80 486.167,84 487.5,88C 484.042,89.4155 480.375,89.9155 476.5,89.5C 476.014,91.8067 476.014,93.9734 476.5,96C 474.968,96.6995 473.968,97.8662 473.5,99.5C 476.022,102.188 478.356,105.021 480.5,108C 476.482,112.221 472.148,116.054 467.5,119.5C 464.849,117.35 462.349,115.017 460,112.5C 457.75,113.708 455.583,115.041 453.5,116.5C 452.137,117.198 450.971,117.198 450,116.5C 449.216,119.76 449.383,122.927 450.5,126C 449.975,126.692 449.308,127.192 448.5,127.5C 446.684,126.265 445.017,126.265 443.5,127.5 Z"/></g>
<g><path style="opacity:0.979" fill="#19a296" d="M 335.5,80.5 C 328.37,99.7291 315.37,105.229 296.5,97C 290.95,92.7275 287.283,87.2275 285.5,80.5C 284.291,62.2343 292.791,52.5677 311,51.5C 322.494,52.1569 330.66,57.6569 335.5,68C 336.804,71.9805 336.804,76.1472 335.5,80.5 Z"/></g>
<g><path style="opacity:0.995" fill="#f17457" d="M 285.5,80.5 C 287.283,87.2275 290.95,92.7275 296.5,97C 315.37,105.229 328.37,99.7291 335.5,80.5C 356.5,80.5 377.5,80.5 398.5,80.5C 403.975,81.4889 409.642,81.8222 415.5,81.5C 422.395,81.5576 429.395,81.7242 436.5,82C 438.57,82.9476 440.07,84.4476 441,86.5C 440.925,97.3108 440.759,108.144 440.5,119C 440.555,128.327 441.221,137.493 442.5,146.5C 442.5,147.5 442.5,148.5 442.5,149.5C 441.167,151.833 441.167,154.167 442.5,156.5C 442.512,206.626 442.512,256.959 442.5,307.5C 435.011,308.329 427.344,308.829 419.5,309C 418.167,311.333 418.167,313.667 419.5,316C 427.344,316.171 435.011,316.671 442.5,317.5C 442.5,320.5 442.5,323.5 442.5,326.5C 421.497,326.333 400.497,326.5 379.5,327C 378.512,338.419 378.179,349.919 378.5,361.5C 399.909,361.178 421.242,361.512 442.5,362.5C 445.29,370.663 443.29,376.997 436.5,381.5C 387.542,380.505 338.542,380.172 289.5,380.5C 293.95,371.766 298.284,362.932 302.5,354C 301.29,352.961 300.29,351.794 299.5,350.5C 300.739,347.411 302.239,344.411 304,341.5C 304.64,339.735 304.473,338.068 303.5,336.5C 305.5,333.833 307.5,331.167 309.5,328.5C 310.426,340.905 311.926,353.238 314,365.5C 315.845,369.795 318.512,370.462 322,367.5C 322.706,363.113 322.54,358.78 321.5,354.5C 327.158,355.321 328.825,353.154 326.5,348C 324.527,347.505 322.527,347.338 320.5,347.5C 319.167,338.5 317.833,329.5 316.5,320.5C 317.29,319.206 318.29,318.039 319.5,317C 338.83,316.5 358.164,316.333 377.5,316.5C 377.5,314.5 377.5,312.5 377.5,310.5C 360.154,310.833 342.821,310.5 325.5,309.5C 328.957,305.643 330.29,301.31 329.5,296.5C 330.116,295.202 330.116,294.202 329.5,293.5C 329.631,290.633 328.297,288.967 325.5,288.5C 326.494,286.666 326.494,284.999 325.5,283.5C 325.5,282.167 325.5,280.833 325.5,279.5C 335.167,279.5 344.833,279.5 354.5,279.5C 355.811,277.44 355.811,275.274 354.5,273C 343.505,272.5 332.505,272.333 321.5,272.5C 320.751,270.754 319.417,269.754 317.5,269.5C 314.796,270.572 312.13,271.572 309.5,272.5C 308.495,268.479 308.495,264.479 309.5,260.5C 320.119,257.198 328.785,251.198 335.5,242.5C 364.074,242.829 392.574,242.495 421,241.5C 421.743,239.559 421.576,237.726 420.5,236C 393.169,235.5 365.835,235.333 338.5,235.5C 342.736,226.563 344.069,217.23 342.5,207.5C 357.676,207.829 372.676,207.496 387.5,206.5C 388.807,204.777 388.807,202.943 387.5,201C 371.837,200.5 356.17,200.333 340.5,200.5C 330.726,177.77 313.393,167.603 288.5,170C 259.593,178.568 247.426,197.735 252,227.5C 259.418,250.47 275.251,262.136 299.5,262.5C 299.5,263.833 299.5,265.167 299.5,266.5C 298.66,268.853 297.326,270.853 295.5,272.5C 281.829,272.333 268.163,272.5 254.5,273C 253.193,274.943 253.193,276.777 254.5,278.5C 265.993,279.331 277.659,279.831 289.5,280C 286.628,282.537 284.128,285.37 282,288.5C 280.923,295.515 279.756,302.515 278.5,309.5C 270.193,310.498 261.86,310.831 253.5,310.5C 253.5,312.5 253.5,314.5 253.5,316.5C 260.687,316.175 267.687,316.509 274.5,317.5C 273.448,317.351 272.448,317.517 271.5,318C 269.024,321.145 266.69,324.312 264.5,327.5C 263.178,327.33 262.011,327.663 261,328.5C 251.479,341.567 241.979,354.567 232.5,367.5C 232.821,346.424 232.488,325.424 231.5,304.5C 232.818,301.742 233.485,298.576 233.5,295C 233.498,291.648 233.165,288.482 232.5,285.5C 232.5,271.167 232.5,256.833 232.5,242.5C 233.809,235.734 233.809,229.068 232.5,222.5C 232.5,207.5 232.5,192.5 232.5,177.5C 234.572,173.007 236.406,168.34 238,163.5C 240,157.167 240,150.833 238,144.5C 236.154,140.145 234.321,135.812 232.5,131.5C 232.333,116.496 232.5,101.496 233,86.5C 233.94,83.2268 236.107,81.3935 239.5,81C 254.83,80.5001 270.163,80.3334 285.5,80.5 Z"/></g>
<g><path style="opacity:1" fill="#2266a3" d="M 304.5,56.5 C 323.032,55.5304 331.532,64.1971 330,82.5C 323.803,95.5668 313.97,99.4002 300.5,94C 290.486,86.9502 287.986,77.7835 293,66.5C 295.984,62.1062 299.817,58.7729 304.5,56.5 Z"/></g>
<g><path style="opacity:1" fill="#16a697" d="M 303.5,58.5 C 323.709,56.8705 331.543,65.8705 327,85.5C 320.023,94.8291 311.189,96.9957 300.5,92C 292.188,84.9252 290.354,76.4252 295,66.5C 297.729,63.6007 300.562,60.934 303.5,58.5 Z"/></g>
<g><path style="opacity:1" fill="#f3ecdb" d="M 309.5,65.5 C 311.632,66.8033 313.298,68.6366 314.5,71C 314.167,71.5 313.833,72 313.5,72.5C 312.123,69.2742 310.457,68.9409 308.5,71.5C 311.548,74.0391 313.548,77.2058 314.5,81C 312.456,87.7061 309.789,88.0395 306.5,82C 306.833,81.5 307.167,81 307.5,80.5C 308.842,82.0049 310.508,82.6715 312.5,82.5C 311.736,79.213 309.903,76.5463 307,74.5C 306.333,72.5 306.333,70.5 307,68.5C 308.417,67.9221 309.25,66.9221 309.5,65.5 Z"/></g>
<g><path style="opacity:1" fill="#feecda" d="M 420.5,108.5 C 365.499,108.333 310.499,108.5 255.5,109C 254.512,120.753 254.179,132.586 254.5,144.5C 253.17,132.431 253.17,120.265 254.5,108C 310.002,107.168 365.335,107.335 420.5,108.5 Z"/></g>
<g><path style="opacity:1" fill="#f27558" d="M 420.5,108.5 C 420.5,120.5 420.5,132.5 420.5,144.5C 365.167,144.5 309.833,144.5 254.5,144.5C 254.179,132.586 254.512,120.753 255.5,109C 310.499,108.5 365.499,108.333 420.5,108.5 Z"/></g>
<g><path style="opacity:0.98" fill="#275ca6" d="M 232.5,131.5 C 234.321,135.812 236.154,140.145 238,144.5C 240,150.833 240,157.167 238,163.5C 236.406,168.34 234.572,173.007 232.5,177.5C 227.442,182.203 221.775,186.203 215.5,189.5C 214.914,189.291 214.414,188.957 214,188.5C 205.653,192.009 197.653,191.676 190,187.5C 189.667,187.833 189.333,188.167 189,188.5C 184.412,185.456 179.912,182.29 175.5,179C 175.833,178.667 176.167,178.333 176.5,178C 171.418,173.182 168.751,167.848 168.5,162C 165.669,147.161 170.002,134.828 181.5,125C 200.206,114.56 217.206,116.727 232.5,131.5 Z"/></g>
<g><path style="opacity:0.51" fill="#23181e" d="M 419.5,79.5 C 425.509,79.3338 431.509,79.5005 437.5,80C 443.088,82.9757 444.754,87.1424 442.5,92.5C 443.833,93.5 443.833,94.5 442.5,95.5C 442.977,96.4776 443.643,97.3109 444.5,98C 443.77,100.601 443.437,103.101 443.5,105.5C 442.167,112.833 442.167,120.167 443.5,127.5C 443.955,132.085 444.289,136.252 444.5,140C 443.883,142.277 443.216,144.444 442.5,146.5C 441.221,137.493 440.555,128.327 440.5,119C 440.759,108.144 440.925,97.3108 441,86.5C 440.07,84.4476 438.57,82.9476 436.5,82C 429.395,81.7242 422.395,81.5576 415.5,81.5C 416.671,80.6554 418.005,79.9887 419.5,79.5 Z"/></g>
<g><path style="opacity:1" fill="#fddac5" d="M 273.5,128.5 C 276.571,127.925 278.571,129.091 279.5,132C 276.989,134.247 275.323,137.08 274.5,140.5C 273.509,136.555 273.176,132.555 273.5,128.5 Z"/></g>
<g><path style="opacity:1" fill="#fee1ce" d="M 280.5,128.5 C 282.288,128.215 283.955,128.548 285.5,129.5C 284.675,130.386 283.675,130.719 282.5,130.5C 282.36,132.124 283.027,133.29 284.5,134C 282.893,135.049 282.227,136.549 282.5,138.5C 283.675,138.281 284.675,138.614 285.5,139.5C 283.955,140.452 282.288,140.785 280.5,140.5C 280.5,136.5 280.5,132.5 280.5,128.5 Z"/></g>
<g><path style="opacity:1" fill="#fdd9c5" d="M 286.5,128.5 C 287.5,128.5 288.5,128.5 289.5,128.5C 289.557,133.682 290.224,133.682 291.5,128.5C 292.833,132.5 292.833,136.5 291.5,140.5C 290.376,138.631 289.543,136.631 289,134.5C 288.808,136.577 288.308,138.577 287.5,140.5C 286.509,136.555 286.176,132.555 286.5,128.5 Z"/></g>
<g><path style="opacity:1" fill="#fedfcb" d="M 301.5,128.5 C 303.288,128.215 304.955,128.548 306.5,129.5C 305.675,130.386 304.675,130.719 303.5,130.5C 303.48,132.143 304.147,133.476 305.5,134.5C 304.147,135.524 303.48,136.857 303.5,138.5C 304.552,138.351 305.552,138.517 306.5,139C 304.866,139.494 303.199,139.66 301.5,139.5C 301.5,135.833 301.5,132.167 301.5,128.5 Z"/></g>
<g><path style="opacity:1" fill="#fddeca" d="M 295.5,128.5 C 297.346,128.222 298.68,128.889 299.5,130.5C 298.397,130.998 297.397,131.331 296.5,131.5C 298.03,133.226 299.03,135.226 299.5,137.5C 298.438,140.966 296.771,141.3 294.5,138.5C 295.274,137.289 296.107,137.289 297,138.5C 297.167,138 297.333,137.5 297.5,137C 296.277,135.28 295.277,133.447 294.5,131.5C 294.685,130.416 295.018,129.416 295.5,128.5 Z"/></g>
<g><path style="opacity:1" fill="#f0e6da" d="M 208.5,137.5 C 209.833,137.5 211.167,137.5 212.5,137.5C 213.687,139.905 215.187,142.239 217,144.5C 217.49,145.793 217.657,147.127 217.5,148.5C 215.833,148.5 214.167,148.5 212.5,148.5C 212.5,147.167 212.5,145.833 212.5,144.5C 211.167,144.5 209.833,144.5 208.5,144.5C 208.34,146.199 208.506,147.866 209,149.5C 212.038,152.203 214.705,155.203 217,158.5C 218.117,164.338 215.95,168.338 210.5,170.5C 208.462,168.724 206.296,167.057 204,165.5C 203.505,163.527 203.338,161.527 203.5,159.5C 204.833,159.5 206.167,159.5 207.5,159.5C 207.649,164.937 209.649,165.771 213.5,162C 210.7,157.536 207.533,153.37 204,149.5C 202.663,145.474 203.83,142.474 207.5,140.5C 208.386,139.675 208.719,138.675 208.5,137.5 Z"/></g>
<g><path style="opacity:1" fill="#fdd7c2" d="M 308.5,128.5 C 310.346,128.222 311.68,128.889 312.5,130.5C 311.397,130.998 310.397,131.331 309.5,131.5C 311.03,133.226 312.03,135.226 312.5,137.5C 312.566,139.266 311.732,140.266 310,140.5C 307.61,139.828 307.11,138.495 308.5,136.5C 309.192,137.025 309.692,137.692 310,138.5C 310.167,138 310.333,137.5 310.5,137C 309.277,135.28 308.277,133.447 307.5,131.5C 307.685,130.416 308.018,129.416 308.5,128.5 Z"/></g>
<g><path style="opacity:1" fill="#fcceb8" d="M 259.5,128.5 C 261.288,128.215 262.955,128.548 264.5,129.5C 263.675,130.386 262.675,130.719 261.5,130.5C 261.5,131.5 261.5,132.5 261.5,133.5C 265.5,133.833 265.5,134.167 261.5,134.5C 261.5,135.833 261.5,137.167 261.5,138.5C 267.269,138.336 268.936,135.502 266.5,130C 266.833,129.5 267.167,129 267.5,128.5C 268.251,129.376 268.751,130.376 269,131.5C 269.424,129.385 270.591,128.552 272.5,129C 269.887,132.464 269.887,135.964 272.5,139.5C 271.998,140.521 271.332,140.688 270.5,140C 269.809,138.933 269.309,137.766 269,136.5C 268.691,137.766 268.191,138.933 267.5,140C 264.854,140.497 262.187,140.664 259.5,140.5C 259.5,136.5 259.5,132.5 259.5,128.5 Z"/></g>
<g><path style="opacity:1" fill="#fdd9c5" d="M 420.5,108.5 C 421.495,120.655 421.829,132.989 421.5,145.5C 365.664,145.832 309.998,145.499 254.5,144.5C 309.833,144.5 365.167,144.5 420.5,144.5C 420.5,132.5 420.5,120.5 420.5,108.5 Z"/></g>
<g><path style="opacity:0.898" fill="#261b3b" d="M 442.5,149.5 C 443.768,152.269 443.768,154.603 442.5,156.5C 441.167,154.167 441.167,151.833 442.5,149.5 Z"/></g>
<g><path style="opacity:1" fill="#f4eadb" d="M 184.5,152.5 C 187.5,152.5 190.5,152.5 193.5,152.5C 193.5,153.5 193.5,154.5 193.5,155.5C 190.5,155.5 187.5,155.5 184.5,155.5C 184.5,154.5 184.5,153.5 184.5,152.5 Z"/></g>
<g><path style="opacity:0.982" fill="#14a295" d="M 549.5,241.5 C 549.5,242.833 549.5,244.167 549.5,245.5C 547.699,247.138 546.033,248.971 544.5,251C 534.524,255.702 525.524,260.868 517.5,266.5C 515.62,266.229 514.287,266.896 513.5,268.5C 501.507,275.994 489.174,283.994 476.5,292.5C 472.714,293.562 469.047,294.896 465.5,296.5C 464.475,296.103 464.308,295.437 465,294.5C 471.484,282.678 480.151,272.678 491,264.5C 491.464,263.906 491.631,263.239 491.5,262.5C 479.307,271.192 469.807,282.192 463,295.5C 462.617,294.944 462.117,294.611 461.5,294.5C 461.739,292.533 461.406,290.699 460.5,289C 462.677,284.295 464.677,279.462 466.5,274.5C 464.139,276.194 462.139,278.194 460.5,280.5C 466.924,257.313 472.757,233.646 478,209.5C 479.958,196.886 480.958,184.219 481,171.5C 478.054,208.411 470.221,244.078 457.5,278.5C 457.335,273.969 456.001,269.469 453.5,265C 454.727,263.413 454.394,262.079 452.5,261C 453.954,257.507 453.621,254.174 451.5,251C 452.568,246.603 452.568,241.937 451.5,237C 452.126,236.25 452.626,235.416 453,234.5C 454.097,214.95 458.93,196.117 467.5,178C 469.878,174.074 472.378,170.241 475,166.5C 481.691,159.307 486.191,160.141 488.5,169C 490.181,170.945 490.848,172.945 490.5,175C 491.88,176.324 492.214,177.657 491.5,179C 493.06,190.893 494.06,202.56 494.5,214C 492.984,219.248 491.651,224.582 490.5,230C 490.645,230.772 490.978,231.439 491.5,232C 487.555,240.06 483.721,248.227 480,256.5C 477.713,260.122 475.047,263.455 472,266.5C 471.018,267.759 470.685,269.092 471,270.5C 483.439,255.706 498.939,245.873 517.5,241C 528.211,238.949 538.878,239.115 549.5,241.5 Z M 466.5,274.5 C 466.511,272.314 467.511,271.481 469.5,272C 468.922,273.417 467.922,274.25 466.5,274.5 Z"/></g>
<g><path style="opacity:1" fill="#fabfa9" d="M 254.5,161.5 C 284.167,161.5 313.833,161.5 343.5,161.5C 343.5,163.833 343.5,166.167 343.5,168.5C 313.831,168.667 284.165,168.5 254.5,168C 253.232,165.837 253.232,163.67 254.5,161.5 Z"/></g>
<g><path style="opacity:1" fill="#f17456" d="M 255.5,163.5 C 284.5,163.5 313.5,163.5 342.5,163.5C 342.5,164.5 342.5,165.5 342.5,166.5C 313.5,166.5 284.5,166.5 255.5,166.5C 255.5,165.5 255.5,164.5 255.5,163.5 Z"/></g>
<g><path style="opacity:0.993" fill="#f07357" d="M 134.5,173.5 C 135.862,176.126 137.696,178.46 140,180.5C 140.826,185.589 140.492,190.589 139,195.5C 135.063,203.331 130.397,210.665 125,217.5C 121.932,220.083 118.765,222.416 115.5,224.5C 114.596,223.791 114.263,222.791 114.5,221.5C 118.464,216.428 120.964,210.761 122,204.5C 118.189,216.811 110.355,225.478 98.5,230.5C 97.7025,230.957 97.3691,231.624 97.5,232.5C 88.3468,228.295 83.3468,231.295 82.5,241.5C 83.0279,252.037 88.3612,256.037 98.5,253.5C 102.067,264.194 105.4,274.861 108.5,285.5C 109.876,291.027 111.543,296.36 113.5,301.5C 113.5,301.833 113.5,302.167 113.5,302.5C 124.028,341.141 121.028,378.641 104.5,415C 94.6161,416.984 84.6161,417.817 74.5,417.5C 78.346,409.474 81.346,401.141 83.5,392.5C 82.6851,393.429 81.8518,394.429 81,395.5C 78.1217,403.306 74.9551,410.972 71.5,418.5C 61.1667,418.5 50.8333,418.5 40.5,418.5C 38.0054,418.969 35.3387,418.969 32.5,418.5C 30.2646,418.205 28.2646,418.539 26.5,419.5C 21.6083,418.802 16.6083,418.302 11.5,418C 11.1667,417.667 10.8333,417.333 10.5,417C 12.1834,414.817 12.85,412.65 12.5,410.5C 11.5937,412.386 10.5937,414.22 9.5,416C 8.27515,416.563 7.27515,416.23 6.5,415C 10.6195,406.161 13.9528,396.661 16.5,386.5C 18.1094,385.335 18.4427,384.001 17.5,382.5C 19.8676,380.044 20.8676,377.044 20.5,373.5C 21.404,372.791 21.7373,371.791 21.5,370.5C 22.3382,370.158 22.6716,369.492 22.5,368.5C 22.5,368.167 22.5,367.833 22.5,367.5C 23.3382,367.158 23.6716,366.492 23.5,365.5C 23.5,365.167 23.5,364.833 23.5,364.5C 24.3382,364.158 24.6716,363.492 24.5,362.5C 24.5,361.833 24.5,361.167 24.5,360.5C 25.404,359.791 25.7373,358.791 25.5,357.5C 26.404,356.791 26.7373,355.791 26.5,354.5C 26.8333,353.833 27.1667,353.167 27.5,352.5C 27.5,352.167 27.5,351.833 27.5,351.5C 27.8333,350.833 28.1667,350.167 28.5,349.5C 28.5,348.833 28.5,348.167 28.5,347.5C 28.8333,346.833 29.1667,346.167 29.5,345.5C 29.5,344.833 29.5,344.167 29.5,343.5C 29.5,342.833 29.5,342.167 29.5,341.5C 30.1667,341.5 30.5,341.167 30.5,340.5C 33.3907,323.49 36.3907,306.49 39.5,289.5C 39.4573,288.584 39.1239,287.917 38.5,287.5C 38.931,282.52 38.931,277.687 38.5,273C 39.1667,272.667 39.8333,272.333 40.5,272C 40.8104,268.07 40.8104,264.403 40.5,261C 41.2892,258.733 41.9559,256.4 42.5,254C 41.6995,252.212 41.3662,250.545 41.5,249C 42.5822,247.67 43.2488,246.17 43.5,244.5C 43.5,243.833 43.5,243.167 43.5,242.5C 44.036,235.436 44.7027,228.769 45.5,222.5C 46.3382,222.158 46.6716,221.492 46.5,220.5C 49.0203,188.497 67.0203,171.331 100.5,169C 112.28,167.755 123.614,169.255 134.5,173.5 Z M 14.5,405.5 C 14.238,404.022 14.5713,402.689 15.5,401.5C 15.8333,401.667 16.1667,401.833 16.5,402C 15.9152,403.302 15.2485,404.469 14.5,405.5 Z M 14.5,405.5 C 14.6882,407.103 14.1882,408.437 13,409.5C 12.6522,407.86 13.1522,406.527 14.5,405.5 Z"/></g>
<g><path style="opacity:1" fill="#0a0605" d="M 340.5,200.5 C 340.833,201.167 341.167,201.833 341.5,202.5C 341.366,204.292 341.699,205.958 342.5,207.5C 344.069,217.23 342.736,226.563 338.5,235.5C 338.167,236.167 337.833,236.833 337.5,237.5C 336.89,238.391 336.557,239.391 336.5,240.5C 335.662,240.842 335.328,241.508 335.5,242.5C 328.785,251.198 320.119,257.198 309.5,260.5C 308.495,264.479 308.495,268.479 309.5,272.5C 305.695,277.463 301.028,281.629 295.5,285C 294.241,285.982 292.908,286.315 291.5,286C 295,283.167 298.5,280.333 302,277.5C 302.667,274.167 302.667,270.833 302,267.5C 301.329,266.748 300.496,266.414 299.5,266.5C 299.5,265.167 299.5,263.833 299.5,262.5C 275.251,262.136 259.418,250.47 252,227.5C 247.426,197.735 259.593,178.568 288.5,170C 313.393,167.603 330.726,177.77 340.5,200.5 Z"/></g>
<g><path style="opacity:1" fill="#fbeddb" d="M 288.5,178.5 C 311.976,176.81 327.143,187.144 334,209.5C 335.159,231.999 324.993,246.499 303.5,253C 280.887,254.954 266.387,245.121 260,223.5C 257.558,200.802 267.058,185.802 288.5,178.5 Z"/></g>
<g><path style="opacity:0.989" fill="#fbeddc" d="M 142.5,183.5 C 144.769,186.131 146.769,188.964 148.5,192C 148.167,192.333 147.833,192.667 147.5,193C 148.642,197.083 150.309,200.916 152.5,204.5C 152.306,206.07 152.306,207.57 152.5,209C 153.167,209.333 153.833,209.667 154.5,210C 154.368,213.075 155.701,215.742 158.5,218C 161.72,219.562 164.72,221.396 167.5,223.5C 165.767,227.73 163.1,231.23 159.5,234C 160.309,235.784 160.976,237.617 161.5,239.5C 161.058,240.739 160.391,241.739 159.5,242.5C 157.833,243.167 156.167,243.833 154.5,244.5C 153.833,244.5 153.5,244.833 153.5,245.5C 152.833,245.833 152.167,246.167 151.5,246.5C 150.167,246.833 150.167,247.167 151.5,247.5C 154.123,249.265 157.123,249.932 160.5,249.5C 160.658,252.902 160.324,256.236 159.5,259.5C 158.711,259.783 158.044,260.283 157.5,261C 162.02,261.814 166.354,261.647 170.5,260.5C 173.323,262.823 175.99,265.323 178.5,268C 178.167,268.333 177.833,268.667 177.5,269C 183.449,275.712 187.782,283.546 190.5,292.5C 191.025,293.192 191.692,293.692 192.5,294C 192.167,294.333 191.833,294.667 191.5,295C 193.196,300.117 195.196,305.117 197.5,310C 196.944,310.383 196.611,310.883 196.5,311.5C 196.328,312.492 196.662,313.158 197.5,313.5C 197.357,315.262 197.691,316.929 198.5,318.5C 196.978,324.857 196.311,331.191 196.5,337.5C 191.799,330.932 187.632,323.932 184,316.5C 182.961,315.29 181.794,314.29 180.5,313.5C 178.763,311.45 176.763,309.617 174.5,308C 168.009,304.672 161.342,301.839 154.5,299.5C 154.5,298.5 154.5,297.5 154.5,296.5C 162.014,296.068 169.347,294.901 176.5,293C 169.517,293.065 162.517,293.398 155.5,294C 154.956,294.717 154.289,295.217 153.5,295.5C 152.761,295.631 152.094,295.464 151.5,295C 152.406,293.301 152.739,291.467 152.5,289.5C 160.739,287.886 169.072,286.719 177.5,286C 177.833,285.667 178.167,285.333 178.5,285C 170.816,285.025 163.149,285.525 155.5,286.5C 155.297,284.61 155.963,283.11 157.5,282C 164.093,280.534 170.759,279.534 177.5,279C 175.899,278.727 174.399,278.227 173,277.5C 171.545,274.088 169.712,270.921 167.5,268C 162.259,268.028 157.592,266.528 153.5,263.5C 154.025,262.808 154.692,262.308 155.5,262C 153.483,259.689 152.149,260.023 151.5,263C 152.315,264.643 153.315,266.143 154.5,267.5C 153.5,269.167 152.167,270.5 150.5,271.5C 149.833,271.833 149.167,272.167 148.5,272.5C 147.778,272.918 147.278,273.584 147,274.5C 146.329,273.748 145.496,273.414 144.5,273.5C 139.352,273.224 134.019,273.058 128.5,273C 126.112,272.697 123.945,271.863 122,270.5C 121.5,271 121,271.5 120.5,272C 124.324,273.853 128.324,275.019 132.5,275.5C 131.605,278.298 131.272,280.964 131.5,283.5C 123.597,283.136 115.93,283.803 108.5,285.5C 105.4,274.861 102.067,264.194 98.5,253.5C 88.3612,256.037 83.0279,252.037 82.5,241.5C 83.3468,231.295 88.3468,228.295 97.5,232.5C 104.355,230.578 110.022,226.912 114.5,221.5C 114.263,222.791 114.596,223.791 115.5,224.5C 115.56,225.043 115.893,225.376 116.5,225.5C 123.809,221.358 129.642,215.691 134,208.5C 136.333,203.833 138.667,199.167 141,194.5C 141.936,190.886 142.436,187.22 142.5,183.5 Z"/></g>
<g><path style="opacity:1" fill="#2c201c" d="M 134.5,173.5 C 139.386,175.053 142.052,178.386 142.5,183.5C 142.436,187.22 141.936,190.886 141,194.5C 138.667,199.167 136.333,203.833 134,208.5C 129.642,215.691 123.809,221.358 116.5,225.5C 115.893,225.376 115.56,225.043 115.5,224.5C 118.765,222.416 121.932,220.083 125,217.5C 130.397,210.665 135.063,203.331 139,195.5C 140.492,190.589 140.826,185.589 140,180.5C 137.696,178.46 135.862,176.126 134.5,173.5 Z"/></g>
<g><path style="opacity:1" fill="#f9bea8" d="M 340.5,200.5 C 356.17,200.333 371.837,200.5 387.5,201C 388.807,202.943 388.807,204.777 387.5,206.5C 387.5,205.167 387.5,203.833 387.5,202.5C 372.167,202.5 356.833,202.5 341.5,202.5C 341.167,201.833 340.833,201.167 340.5,200.5 Z"/></g>
<g><path style="opacity:1" fill="#f58b6f" d="M 341.5,202.5 C 356.833,202.5 372.167,202.5 387.5,202.5C 387.5,203.833 387.5,205.167 387.5,206.5C 372.676,207.496 357.676,207.829 342.5,207.5C 341.699,205.958 341.366,204.292 341.5,202.5 Z"/></g>
<g><path style="opacity:1" fill="#242220" d="M 294.5,212.5 C 294.981,209.545 296.481,207.211 299,205.5C 298.546,208.386 297.046,210.719 294.5,212.5 Z"/></g>
<g><path style="opacity:1" fill="#2e2b28" d="M 313.5,199.5 C 314.043,199.56 314.376,199.893 314.5,200.5C 309.194,208.306 303.694,215.973 298,223.5C 297.163,225.007 295.996,225.507 294.5,225C 300.976,216.521 307.309,208.021 313.5,199.5 Z"/></g>
<g><path style="opacity:1" fill="#191817" d="M 139.5,216.5 C 143.765,217.899 144.432,220.232 141.5,223.5C 138.781,221.684 138.115,219.351 139.5,216.5 Z"/></g>
<g><path style="opacity:0.004" fill="#0000ff" d="M 46.5,220.5 C 46.6716,221.492 46.3382,222.158 45.5,222.5C 43.9689,221.075 44.3023,220.409 46.5,220.5 Z"/></g>
<g><path style="opacity:1" fill="#312e2a" d="M 294.5,212.5 C 290.633,219.214 286.133,225.547 281,231.5C 280.333,230.5 280.333,229.5 281,228.5C 285.281,222.91 289.781,217.577 294.5,212.5 Z"/></g>
<g><path style="opacity:0.968" fill="#1ca298" d="M 232.5,222.5 C 233.809,229.068 233.809,235.734 232.5,242.5C 228.28,242.065 224.28,243.231 220.5,246C 216.328,250.842 213.661,256.342 212.5,262.5C 212.813,275.177 219.479,282.844 232.5,285.5C 233.165,288.482 233.498,291.648 233.5,295C 233.485,298.576 232.818,301.742 231.5,304.5C 230.5,304.5 229.5,304.5 228.5,304.5C 228.82,301.102 228.487,297.768 227.5,294.5C 226.893,294.624 226.56,294.957 226.5,295.5C 223.342,293.938 220.175,292.271 217,290.5C 214.294,292.871 211.961,295.537 210,298.5C 206.82,294.655 203.653,290.822 200.5,287C 202.112,284.384 204.112,282.05 206.5,280C 205.833,278.667 204.833,277.667 203.5,277C 204.479,273.636 203.313,271.136 200,269.5C 197.637,270.232 195.137,270.232 192.5,269.5C 192.5,265.5 192.5,261.5 192.5,257.5C 195.518,257.665 198.518,257.498 201.5,257C 202,256.5 202.5,256 203,255.5C 203.059,252.178 204.226,249.344 206.5,247C 204.167,244.667 201.833,242.333 199.5,240C 202.833,236.667 206.167,233.333 209.5,230C 212.153,231.276 214.653,233.109 217,235.5C 220.431,234.189 223.931,233.189 227.5,232.5C 227.335,229.482 227.502,226.482 228,223.5C 229.356,222.62 230.856,222.286 232.5,222.5 Z"/></g>
<g><path style="opacity:1" fill="#2c1b16" d="M 114.5,221.5 C 110.022,226.912 104.355,230.578 97.5,232.5C 97.3691,231.624 97.7025,230.957 98.5,230.5C 110.355,225.478 118.189,216.811 122,204.5C 120.964,210.761 118.464,216.428 114.5,221.5 Z"/></g>
<g><path style="opacity:1" fill="#0d1d1e" d="M 460.5,280.5 C 456.883,290.132 454.216,299.132 452.5,307.5C 451.5,308.833 450.5,308.833 449.5,307.5C 452.325,297.864 454.992,288.197 457.5,278.5C 470.221,244.078 478.054,208.411 481,171.5C 480.958,184.219 479.958,196.886 478,209.5C 472.757,233.646 466.924,257.313 460.5,280.5 Z"/></g>
<g><path style="opacity:1" fill="#f9b69f" d="M 338.5,235.5 C 365.835,235.333 393.169,235.5 420.5,236C 421.576,237.726 421.743,239.559 421,241.5C 392.574,242.495 364.074,242.829 335.5,242.5C 335.328,241.508 335.662,240.842 336.5,240.5C 364.5,240.5 392.5,240.5 420.5,240.5C 420.5,239.5 420.5,238.5 420.5,237.5C 392.833,237.5 365.167,237.5 337.5,237.5C 337.833,236.833 338.167,236.167 338.5,235.5 Z"/></g>
<g><path style="opacity:1" fill="#f17457" d="M 337.5,237.5 C 365.167,237.5 392.833,237.5 420.5,237.5C 420.5,238.5 420.5,239.5 420.5,240.5C 392.5,240.5 364.5,240.5 336.5,240.5C 336.557,239.391 336.89,238.391 337.5,237.5 Z"/></g>
<g><path style="opacity:1" fill="#2d2a27" d="M 88.5,238.5 C 94.6872,237.191 97.1872,239.857 96,246.5C 94.9887,245.663 93.8221,245.33 92.5,245.5C 92.719,246.675 92.3857,247.675 91.5,248.5C 89.7482,245.167 90.7482,243.501 94.5,243.5C 94.1921,239.991 92.1921,238.324 88.5,238.5 Z"/></g>
<g><path style="opacity:0.004" fill="#0000ff" d="M 43.5,242.5 C 43.5,243.167 43.5,243.833 43.5,244.5C 41.0673,243.452 41.0673,242.786 43.5,242.5 Z"/></g>
<g><path style="opacity:0.004" fill="#0000ff" d="M 159.5,242.5 C 158.7,244.741 157.034,245.741 154.5,245.5C 154.5,245.167 154.5,244.833 154.5,244.5C 156.167,243.833 157.833,243.167 159.5,242.5 Z"/></g>
<g><path style="opacity:0.004" fill="#0000ff" d="M 153.5,245.5 C 153.833,245.5 154.167,245.5 154.5,245.5C 154.027,246.906 153.027,247.573 151.5,247.5C 151.5,247.167 151.5,246.833 151.5,246.5C 152.167,246.167 152.833,245.833 153.5,245.5 Z"/></g>
<g><path style="opacity:1" fill="#071716" d="M 498.5,258.5 C 511.66,249.505 526.327,245.005 542.5,245C 535.186,246.665 527.852,248.331 520.5,250C 513.088,252.843 505.755,255.677 498.5,258.5 Z"/></g>
<g><path style="opacity:0.55" fill="#0e0d0d" d="M 159.5,259.5 C 163.371,259.185 167.038,259.518 170.5,260.5C 166.354,261.647 162.02,261.814 157.5,261C 158.044,260.283 158.711,259.783 159.5,259.5 Z"/></g>
<g><path style="opacity:1" fill="#091b19" d="M 498.5,258.5 C 496.66,260.669 494.326,262.002 491.5,262.5C 493.336,260.412 495.669,259.079 498.5,258.5 Z"/></g>
<g><path style="opacity:1" fill="#fdeedc" d="M 299.5,266.5 C 300.496,266.414 301.329,266.748 302,267.5C 302.667,270.833 302.667,274.167 302,277.5C 298.5,280.333 295,283.167 291.5,286C 292.908,286.315 294.241,285.982 295.5,285C 301.028,281.629 305.695,277.463 309.5,272.5C 312.13,271.572 314.796,270.572 317.5,269.5C 319.417,269.754 320.751,270.754 321.5,272.5C 321.5,273.5 321.5,274.5 321.5,275.5C 319.507,280.008 316.507,283.842 312.5,287C 314.417,286.973 316.084,286.139 317.5,284.5C 319.219,282.456 320.886,280.456 322.5,278.5C 333.167,278.5 343.833,278.5 354.5,278.5C 354.5,278.833 354.5,279.167 354.5,279.5C 344.833,279.5 335.167,279.5 325.5,279.5C 325.5,280.833 325.5,282.167 325.5,283.5C 324.296,286.718 322.629,289.718 320.5,292.5C 323.124,292.923 324.791,291.59 325.5,288.5C 328.297,288.967 329.631,290.633 329.5,293.5C 328.521,294.765 327.521,296.099 326.5,297.5C 326.833,297.833 327.167,298.167 327.5,298.5C 328.182,297.757 328.849,297.091 329.5,296.5C 330.29,301.31 328.957,305.643 325.5,309.5C 342.821,310.5 360.154,310.833 377.5,310.5C 377.5,312.5 377.5,314.5 377.5,316.5C 358.164,316.333 338.83,316.5 319.5,317C 318.29,318.039 317.29,319.206 316.5,320.5C 314.196,323.141 311.862,325.808 309.5,328.5C 307.5,331.167 305.5,333.833 303.5,336.5C 294.099,329.766 284.432,323.433 274.5,317.5C 267.687,316.509 260.687,316.175 253.5,316.5C 253.5,314.5 253.5,312.5 253.5,310.5C 261.86,310.831 270.193,310.498 278.5,309.5C 279.756,302.515 280.923,295.515 282,288.5C 284.128,285.37 286.628,282.537 289.5,280C 277.659,279.831 265.993,279.331 254.5,278.5C 266.838,278.667 279.171,278.5 291.5,278C 292.381,277.292 293.047,276.458 293.5,275.5C 294.401,274.71 295.068,273.71 295.5,272.5C 297.326,270.853 298.66,268.853 299.5,266.5 Z"/></g>
<g><path style="opacity:0.004" fill="#0000ff" d="M 517.5,266.5 C 516.713,268.104 515.38,268.771 513.5,268.5C 514.287,266.896 515.62,266.229 517.5,266.5 Z"/></g>
<g><path style="opacity:0.674" fill="#1a191a" d="M 152.5,289.5 C 152.816,286.054 153.816,282.887 155.5,280C 160.623,279.196 165.623,278.196 170.5,277C 169.126,274.417 167.626,271.917 166,269.5C 162.423,270.186 158.589,269.52 154.5,267.5C 153.315,266.143 152.315,264.643 151.5,263C 152.149,260.023 153.483,259.689 155.5,262C 154.692,262.308 154.025,262.808 153.5,263.5C 157.592,266.528 162.259,268.028 167.5,268C 169.712,270.921 171.545,274.088 173,277.5C 174.399,278.227 175.899,278.727 177.5,279C 170.759,279.534 164.093,280.534 157.5,282C 155.963,283.11 155.297,284.61 155.5,286.5C 163.149,285.525 170.816,285.025 178.5,285C 178.167,285.333 177.833,285.667 177.5,286C 169.072,286.719 160.739,287.886 152.5,289.5 Z"/></g>
<g><path style="opacity:0.004" fill="#0000ff" d="M 150.5,271.5 C 150.289,273.424 149.623,273.757 148.5,272.5C 149.167,272.167 149.833,271.833 150.5,271.5 Z"/></g>
<g><path style="opacity:1" fill="#fac2ab" d="M 295.5,272.5 C 295.068,273.71 294.401,274.71 293.5,275.5C 280.677,274.505 267.677,274.171 254.5,274.5C 254.5,275.833 254.5,277.167 254.5,278.5C 253.193,276.777 253.193,274.943 254.5,273C 268.163,272.5 281.829,272.333 295.5,272.5 Z"/></g>
<g><path style="opacity:1" fill="#fbc3ad" d="M 321.5,272.5 C 332.505,272.333 343.505,272.5 354.5,273C 355.811,275.274 355.811,277.44 354.5,279.5C 354.5,279.167 354.5,278.833 354.5,278.5C 354.5,277.167 354.5,275.833 354.5,274.5C 343.654,274.172 332.987,274.506 322.5,275.5C 322.167,275.5 321.833,275.5 321.5,275.5C 321.5,274.5 321.5,273.5 321.5,272.5 Z"/></g>
<g><path style="opacity:0.569" fill="#252226" d="M 144.5,273.5 C 141.041,276.83 137.041,277.497 132.5,275.5C 128.324,275.019 124.324,273.853 120.5,272C 121,271.5 121.5,271 122,270.5C 123.945,271.863 126.112,272.697 128.5,273C 134.019,273.058 139.352,273.224 144.5,273.5 Z"/></g>
<g><path style="opacity:1" fill="#f2785c" d="M 293.5,275.5 C 293.047,276.458 292.381,277.292 291.5,278C 279.171,278.5 266.838,278.667 254.5,278.5C 254.5,277.167 254.5,275.833 254.5,274.5C 267.677,274.171 280.677,274.505 293.5,275.5 Z"/></g>
<g><path style="opacity:1" fill="#f1775a" d="M 354.5,278.5 C 343.833,278.5 333.167,278.5 322.5,278.5C 322.5,277.5 322.5,276.5 322.5,275.5C 332.987,274.506 343.654,274.172 354.5,274.5C 354.5,275.833 354.5,277.167 354.5,278.5 Z"/></g>
<g><path style="opacity:1" fill="#2e2b28" d="M 321.5,275.5 C 321.833,275.5 322.167,275.5 322.5,275.5C 322.5,276.5 322.5,277.5 322.5,278.5C 320.886,280.456 319.219,282.456 317.5,284.5C 316.084,286.139 314.417,286.973 312.5,287C 316.507,283.842 319.507,280.008 321.5,275.5 Z"/></g>
<g><path style="opacity:0.983" fill="#2a5ca5" d="M 131.5,283.5 C 132.954,284.52 133.287,285.687 132.5,287C 134.569,287.324 134.902,288.158 133.5,289.5C 133.901,291.434 134.901,292.934 136.5,294C 135.944,294.383 135.611,294.883 135.5,295.5C 131.655,297.284 127.655,298.784 123.5,300C 120.12,300.339 116.787,300.839 113.5,301.5C 111.543,296.36 109.876,291.027 108.5,285.5C 115.93,283.803 123.597,283.136 131.5,283.5 Z"/></g>
<g><path style="opacity:1" fill="#0d1b1d" d="M 491.5,262.5 C 491.631,263.239 491.464,263.906 491,264.5C 480.151,272.678 471.484,282.678 465,294.5C 464.308,295.437 464.475,296.103 465.5,296.5C 463.102,299.571 461.102,302.905 459.5,306.5C 458.518,307.141 457.518,307.807 456.5,308.5C 455.893,308.376 455.56,308.043 455.5,307.5C 457.964,302.935 459.964,298.602 461.5,294.5C 462.117,294.611 462.617,294.944 463,295.5C 469.807,282.192 479.307,271.192 491.5,262.5 Z"/></g>
<g><path style="opacity:1" fill="#3b3733" d="M 325.5,283.5 C 326.494,284.999 326.494,286.666 325.5,288.5C 324.791,291.59 323.124,292.923 320.5,292.5C 322.629,289.718 324.296,286.718 325.5,283.5 Z"/></g>
<g><path style="opacity:1" fill="#3e3b37" d="M 154.5,296.5 C 153.833,296.5 153.5,296.167 153.5,295.5C 154.289,295.217 154.956,294.717 155.5,294C 162.517,293.398 169.517,293.065 176.5,293C 169.347,294.901 162.014,296.068 154.5,296.5 Z"/></g>
<g><path style="opacity:0.004" fill="#0000ff" d="M 226.5,295.5 C 226.56,294.957 226.893,294.624 227.5,294.5C 228.487,297.768 228.82,301.102 228.5,304.5C 227.833,301.5 227.167,298.5 226.5,295.5 Z"/></g>
<g><path style="opacity:0.993" fill="#245ba5" d="M 136.5,295.5 C 142.665,296.209 148.665,297.542 154.5,299.5C 161.342,301.839 168.009,304.672 174.5,308C 176.763,309.617 178.763,311.45 180.5,313.5C 181.794,314.29 182.961,315.29 184,316.5C 187.632,323.932 191.799,330.932 196.5,337.5C 202.569,347.968 208.903,358.301 215.5,368.5C 216.31,373.414 218.81,377.747 223,381.5C 226.319,387.468 229.652,393.468 233,399.5C 233.837,401.007 235.004,401.507 236.5,401C 231.658,394.616 227.658,387.782 224.5,380.5C 227.076,375.592 229.743,371.259 232.5,367.5C 241.979,354.567 251.479,341.567 261,328.5C 262.011,327.663 263.178,327.33 264.5,327.5C 276.301,334.905 287.968,342.571 299.5,350.5C 300.29,351.794 301.29,352.961 302.5,354C 298.284,362.932 293.95,371.766 289.5,380.5C 277.141,402.707 262.474,422.707 245.5,440.5C 238.787,446.776 230.954,450.442 222,451.5C 219.545,450.084 217.045,449.75 214.5,450.5C 200.187,444.347 188.02,435.347 178,423.5C 176.057,421.285 174.391,421.285 173,423.5C 172.059,437.955 170.559,451.789 168.5,465C 152.282,468.01 135.949,468.843 119.5,467.5C 108.328,467.921 97.3277,468.588 86.5,469.5C 86.1667,469.5 85.8333,469.5 85.5,469.5C 84.2275,468.566 82.7275,467.899 81,467.5C 71.2406,467.607 61.2406,467.607 51,467.5C 48.8017,462.758 46.9684,457.925 45.5,453C 46.0585,452.275 46.3918,451.442 46.5,450.5C 45.4305,443.245 44.0971,436.078 42.5,429C 43.2854,426.958 42.952,424.958 41.5,423C 41.8333,422 42.1667,421 42.5,420C 41.5842,419.722 40.9175,419.222 40.5,418.5C 50.8333,418.5 61.1667,418.5 71.5,418.5C 72.6247,420.838 73.6247,420.505 74.5,417.5C 84.6161,417.817 94.6161,416.984 104.5,415C 121.028,378.641 124.028,341.141 113.5,302.5C 118.407,302.399 123.24,301.732 128,300.5C 136.171,302.02 144.004,304.52 151.5,308C 152.833,308.667 154.167,308.667 155.5,308C 147.99,303.785 139.99,300.785 131.5,299C 133.76,298.451 135.426,297.284 136.5,295.5 Z"/></g>
<g><path style="opacity:1" fill="#231d1a" d="M 329.5,293.5 C 330.116,294.202 330.116,295.202 329.5,296.5C 328.849,297.091 328.182,297.757 327.5,298.5C 327.167,298.167 326.833,297.833 326.5,297.5C 327.521,296.099 328.521,294.765 329.5,293.5 Z"/></g>
<g><path style="opacity:1" fill="#0d1724" d="M 135.5,295.5 C 135.833,295.5 136.167,295.5 136.5,295.5C 135.426,297.284 133.76,298.451 131.5,299C 139.99,300.785 147.99,303.785 155.5,308C 154.167,308.667 152.833,308.667 151.5,308C 144.004,304.52 136.171,302.02 128,300.5C 123.24,301.732 118.407,302.399 113.5,302.5C 113.5,302.167 113.5,301.833 113.5,301.5C 116.787,300.839 120.12,300.339 123.5,300C 127.655,298.784 131.655,297.284 135.5,295.5 Z"/></g>
<g><path style="opacity:0.913" fill="#2859a9" d="M 459.5,306.5 C 468.675,307.167 478.009,307.833 487.5,308.5C 487.709,309.086 488.043,309.586 488.5,310C 487.736,312.069 487.236,314.236 487,316.5C 485.933,317.191 484.766,317.691 483.5,318C 472.962,318.436 462.629,318.603 452.5,318.5C 452.631,317.624 452.298,316.957 451.5,316.5C 450.28,317.711 449.113,317.711 448,316.5C 447.283,317.044 446.783,317.711 446.5,318.5C 445.041,318.567 443.708,318.234 442.5,317.5C 435.011,316.671 427.344,316.171 419.5,316C 418.167,313.667 418.167,311.333 419.5,309C 427.344,308.829 435.011,308.329 442.5,307.5C 444.833,307.5 447.167,307.5 449.5,307.5C 450.5,308.833 451.5,308.833 452.5,307.5C 453.5,307.5 454.5,307.5 455.5,307.5C 455.56,308.043 455.893,308.376 456.5,308.5C 457.518,307.807 458.518,307.141 459.5,306.5 Z"/></g>
<g><path style="opacity:0.004" fill="#0000ff" d="M 196.5,311.5 C 198.698,311.409 199.031,312.075 197.5,313.5C 196.662,313.158 196.328,312.492 196.5,311.5 Z"/></g>
<g><path style="opacity:1" fill="#f27659" d="M 254.5,311.5 C 262.196,311.169 269.862,311.503 277.5,312.5C 277.167,313.167 276.833,313.833 276.5,314.5C 269.197,315.497 261.863,315.831 254.5,315.5C 254.5,314.167 254.5,312.833 254.5,311.5 Z"/></g>
<g><path style="opacity:1" fill="#f27457" d="M 323.5,311.5 C 341.167,311.5 358.833,311.5 376.5,311.5C 376.5,312.833 376.5,314.167 376.5,315.5C 358.164,315.667 339.83,315.5 321.5,315C 322.305,313.887 322.972,312.721 323.5,311.5 Z"/></g>
<g><path style="opacity:1" fill="#0d1520" d="M 180.5,313.5 C 180.631,314.239 180.464,314.906 180,315.5C 173.916,313.856 168.082,314.523 162.5,317.5C 162.937,315.926 163.937,314.759 165.5,314C 168,313.5 170.5,313 173,312.5C 175.462,313.159 177.962,313.493 180.5,313.5 Z"/></g>
<g><path style="opacity:1" fill="#050404" d="M 274.5,317.5 C 284.432,323.433 294.099,329.766 303.5,336.5C 304.473,338.068 304.64,339.735 304,341.5C 302.239,344.411 300.739,347.411 299.5,350.5C 287.968,342.571 276.301,334.905 264.5,327.5C 266.69,324.312 269.024,321.145 271.5,318C 272.448,317.517 273.448,317.351 274.5,317.5 Z"/></g>
<g><path style="opacity:1" fill="#0c0604" d="M 316.5,320.5 C 317.833,329.5 319.167,338.5 320.5,347.5C 320.993,349.806 321.326,352.139 321.5,354.5C 322.54,358.78 322.706,363.113 322,367.5C 318.512,370.462 315.845,369.795 314,365.5C 311.926,353.238 310.426,340.905 309.5,328.5C 311.862,325.808 314.196,323.141 316.5,320.5 Z"/></g>
<g><path style="opacity:0.756" fill="#181616" d="M 452.5,318.5 C 451.933,320.03 451.267,321.53 450.5,323C 450.833,323.333 451.167,323.667 451.5,324C 450.328,324.419 449.328,325.085 448.5,326C 455.609,325.891 462.443,326.724 469,328.5C 469.667,339.167 469.667,349.833 469,360.5C 468.5,361 468,361.5 467.5,362C 459.173,362.5 450.84,362.666 442.5,362.5C 421.242,361.512 399.909,361.178 378.5,361.5C 378.179,349.919 378.512,338.419 379.5,327C 400.497,326.5 421.497,326.333 442.5,326.5C 443.167,326.5 443.833,326.5 444.5,326.5C 444.56,323.659 445.226,320.993 446.5,318.5C 446.783,317.711 447.283,317.044 448,316.5C 449.113,317.711 450.28,317.711 451.5,316.5C 452.298,316.957 452.631,317.624 452.5,318.5 Z"/></g>
<g><path style="opacity:1" fill="#f8ebd9" d="M 444.5,326.5 C 451.556,328.41 458.889,329.076 466.5,328.5C 466.5,339.167 466.5,349.833 466.5,360.5C 437.831,360.667 409.165,360.5 380.5,360C 379.513,349.582 379.18,339.082 379.5,328.5C 401.526,329.156 423.192,328.489 444.5,326.5 Z"/></g>
<g><path style="opacity:1" fill="#040403" d="M 389.5,337.5 C 391.604,337.201 393.604,337.534 395.5,338.5C 393.986,342.303 392.986,346.303 392.5,350.5C 391.897,345.994 390.897,341.66 389.5,337.5 Z"/></g>
<g><path style="opacity:1" fill="#11100f" d="M 405.5,337.5 C 407.604,337.201 409.604,337.534 411.5,338.5C 409.986,342.303 408.986,346.303 408.5,350.5C 407.897,345.994 406.897,341.66 405.5,337.5 Z"/></g>
<g><path style="opacity:1" fill="#060505" d="M 420.5,337.5 C 422.423,341.029 423.089,345.029 422.5,349.5C 423.552,349.351 424.552,349.517 425.5,350C 423.866,350.494 422.199,350.66 420.5,350.5C 420.5,346.167 420.5,341.833 420.5,337.5 Z"/></g>
<g><path style="opacity:1" fill="#3a68aa" d="M 452.5,336.5 C 455.333,337.288 456.333,338.955 455.5,341.5C 454.833,340.833 454.167,340.167 453.5,339.5C 453.167,340 452.833,340.5 452.5,341C 454.053,343.048 455.386,345.215 456.5,347.5C 454.81,352.522 452.81,352.688 450.5,348C 450.833,347.5 451.167,347 451.5,346.5C 452.167,347.167 452.833,347.833 453.5,348.5C 453.833,348 454.167,347.5 454.5,347C 453.167,345 451.833,343 450.5,341C 451.414,339.594 452.08,338.094 452.5,336.5 Z"/></g>
<g><path style="opacity:1" fill="#191817" d="M 398.5,337.5 C 402.949,337.256 404.615,339.422 403.5,344C 404.745,349.254 402.745,351.421 397.5,350.5C 397.231,346.069 397.564,341.735 398.5,337.5 Z"/></g>
<g><path style="opacity:1" fill="#f3e6d4" d="M 399.5,339.5 C 400.777,340.694 401.444,342.36 401.5,344.5C 401.167,346.167 400.833,347.833 400.5,349.5C 399.513,346.232 399.18,342.898 399.5,339.5 Z"/></g>
<g><path style="opacity:1" fill="#272523" d="M 413.5,337.5 C 415.124,337.36 416.29,338.027 417,339.5C 418.071,343.204 418.238,346.871 417.5,350.5C 415.88,347.942 414.38,347.942 413,350.5C 412.466,346.141 412.632,341.808 413.5,337.5 Z"/></g>
<g><path style="opacity:1" fill="#0b121c" d="M 162.5,317.5 C 152.969,328.225 146.302,340.558 142.5,354.5C 141.794,352.234 141.961,349.901 143,347.5C 145.522,339.259 149.188,331.593 154,324.5C 156.436,321.553 159.269,319.22 162.5,317.5 Z"/></g>
<g><path style="opacity:1" fill="#f9ac93" d="M 320.5,347.5 C 322.527,347.338 324.527,347.505 326.5,348C 328.825,353.154 327.158,355.321 321.5,354.5C 321.326,352.139 320.993,349.806 320.5,347.5 Z"/></g>
<g><path style="opacity:0.584" fill="#130e1a" d="M 38.5,287.5 C 39.1239,287.917 39.4573,288.584 39.5,289.5C 36.3907,306.49 33.3907,323.49 30.5,340.5C 29.8333,340.5 29.5,340.833 29.5,341.5C 29.5,342.167 29.5,342.833 29.5,343.5C 28.1667,344.167 28.1667,344.833 29.5,345.5C 29.1667,346.167 28.8333,346.833 28.5,347.5C 27.1667,348.167 27.1667,348.833 28.5,349.5C 28.1667,350.167 27.8333,350.833 27.5,351.5C 26.1667,351.833 26.1667,352.167 27.5,352.5C 27.1667,353.167 26.8333,353.833 26.5,354.5C 25.596,355.209 25.2627,356.209 25.5,357.5C 24.596,358.209 24.2627,359.209 24.5,360.5C 24.5,361.167 24.5,361.833 24.5,362.5C 23.6618,362.842 23.3284,363.508 23.5,364.5C 23.5,364.833 23.5,365.167 23.5,365.5C 22.6618,365.842 22.3284,366.508 22.5,367.5C 22.5,367.833 22.5,368.167 22.5,368.5C 21.6618,368.842 21.3284,369.508 21.5,370.5C 20.596,371.209 20.2627,372.209 20.5,373.5C 18.7475,376.146 17.7475,379.146 17.5,382.5C 15.8906,383.665 15.5573,384.999 16.5,386.5C 12.8013,393.355 8.80129,400.522 4.5,408C 4.83333,408.333 5.16667,408.667 5.5,409C 4.25668,410.154 3.25668,411.488 2.5,413C 1.55198,413.483 0.551975,413.649 -0.5,413.5C -0.5,412.833 -0.5,412.167 -0.5,411.5C 8.61977,394.521 15.9531,377.521 21.5,360.5C 20.5221,359.199 20.8555,358.032 22.5,357C 23.0441,354.6 23.7108,352.267 24.5,350C 24.1667,349.667 23.8333,349.333 23.5,349C 25.4414,347.184 26.1081,345.184 25.5,343C 27.9519,339.195 28.9519,335.195 28.5,331C 31.6048,318.38 34.6048,305.713 37.5,293C 36.9491,291.602 36.6158,290.268 36.5,289C 37.0442,288.283 37.7109,287.783 38.5,287.5 Z"/></g>
<g><path style="opacity:1" fill="#351b15" d="M 83.5,392.5 C 83.9229,386.554 85.4229,380.887 88,375.5C 87.5848,381.496 86.0848,387.163 83.5,392.5 Z"/></g>
<g><path style="opacity:1" fill="#2d1813" d="M 102.5,355.5 C 103.693,355.97 104.36,356.97 104.5,358.5C 101.175,378.204 95.8419,397.204 88.5,415.5C 87.448,415.649 86.448,415.483 85.5,415C 95.2838,396.368 100.95,376.535 102.5,355.5 Z"/></g>
<g><path style="opacity:1" fill="#0c1523" d="M 143.5,377.5 C 145.417,378.909 147.25,380.576 149,382.5C 156.279,393.446 163.946,404.112 172,414.5C 172.667,415.5 172.667,416.5 172,417.5C 161.868,404.548 152.368,391.214 143.5,377.5 Z"/></g>
<g><path style="opacity:1" fill="#090e18" d="M 215.5,368.5 C 218.5,372.5 221.5,376.5 224.5,380.5C 227.658,387.782 231.658,394.616 236.5,401C 235.004,401.507 233.837,401.007 233,399.5C 229.652,393.468 226.319,387.468 223,381.5C 218.81,377.747 216.31,373.414 215.5,368.5 Z"/></g>
<g><path style="opacity:1" fill="#2f1915" d="M 83.5,392.5 C 81.346,401.141 78.346,409.474 74.5,417.5C 73.6247,420.505 72.6247,420.838 71.5,418.5C 74.9551,410.972 78.1217,403.306 81,395.5C 81.8518,394.429 82.6851,393.429 83.5,392.5 Z"/></g>
<g><path style="opacity:0.004" fill="#0000ff" d="M 26.5,419.5 C 28.2646,418.539 30.2646,418.205 32.5,418.5C 30.7918,420.512 28.7918,420.846 26.5,419.5 Z"/></g>
</svg>
